<svg width="334" height="269" viewBox="0 0 334 269" fill="none" xmlns="http://www.w3.org/2000/svg">
<rect x="0.99707" y="0.952148" width="333.002" height="268" rx="8" fill="#FF8345"/>
<g opacity="0.3">
<mask id="mask0" mask-type="alpha" maskUnits="userSpaceOnUse" x="0" y="0" width="334" height="269">
<rect x="0.99707" y="0.952148" width="333.002" height="268" rx="8" fill="#FF8345"/>
</mask>
<g mask="url(#mask0)">
<path d="M366.981 45.9936C366.981 45.9936 313.976 77.9982 287.522 75.4001C256.195 72.3167 227.548 12.3475 159.383 23.7944C91.2187 35.2413 69.1303 5.38015 83.5465 -39.8576" stroke="white" stroke-miterlimit="10"/>
<path d="M420.875 79.4704C420.875 79.4704 352.861 120.537 318.918 117.203C278.72 113.247 241.961 36.2974 154.496 50.9855C67.0309 65.6736 38.6881 27.3573 57.1862 -30.6895" stroke="white" stroke-miterlimit="10"/>
<path d="M-33.7503 258.818C-33.7503 258.818 19.2549 226.813 45.708 229.411C77.0354 232.495 105.683 292.464 173.847 281.017C242.012 269.57 264.1 299.431 249.684 344.669" stroke="white" stroke-miterlimit="10"/>
<path d="M-87.6444 225.341C-87.6444 225.341 -19.6308 184.274 14.3126 187.608C54.5103 191.565 91.2694 268.514 178.734 253.826C266.2 239.138 294.542 277.454 276.044 335.501" stroke="white" stroke-miterlimit="10"/>
</g>
</g>
</svg>
