<svg width="596" height="647" viewBox="0 0 596 647" fill="none" xmlns="http://www.w3.org/2000/svg">
<path d="M354.989 40.7853C170.374 -22.5114 105.319 -13.7197 29.7145 91.7747L29.5168 92.1322C10.7789 125.997 -2.80765 150.552 1.5833 239.466C4.47097 297.939 129.935 564.74 235.429 591.113C340.923 617.487 520.263 501.443 578.285 339.686C636.307 177.928 539.604 104.082 354.989 40.7853Z" stroke="black" stroke-opacity="0.2"/>
<path d="M328.647 81.9875C157.76 23.3977 97.5435 31.5356 27.5609 129.185L27.3779 129.516C10.0334 160.863 -2.54281 183.592 1.52162 265.894C4.19456 320.019 120.328 566.979 217.978 591.392C315.627 615.804 481.631 508.39 535.338 358.661C589.045 208.932 499.533 140.577 328.647 81.9875Z" fill="#7BC678"/>
<path d="M64.0415 620.077C66.3448 620.077 68.212 618.21 68.212 615.907C68.212 613.604 66.3448 611.736 64.0415 611.736C61.7383 611.736 59.8711 613.604 59.8711 615.907C59.8711 618.21 61.7383 620.077 64.0415 620.077Z" fill="#7BC678"/>
<path d="M64.0415 515.685C66.3448 515.685 68.212 513.818 68.212 511.515C68.212 509.211 66.3448 507.344 64.0415 507.344C61.7383 507.344 59.8711 509.211 59.8711 511.515C59.8711 513.818 61.7383 515.685 64.0415 515.685Z" fill="#7BC678"/>
<path d="M92.7715 646.226C95.0748 646.226 96.942 644.358 96.942 642.055C96.942 639.752 95.0748 637.885 92.7715 637.885C90.4683 637.885 88.6011 639.752 88.6011 642.055C88.6011 644.358 90.4683 646.226 92.7715 646.226Z" fill="#7BC678"/>
<path d="M92.7715 620.077C95.0748 620.077 96.942 618.21 96.942 615.907C96.942 613.604 95.0748 611.736 92.7715 611.736C90.4683 611.736 88.6011 613.604 88.6011 615.907C88.6011 618.21 90.4683 620.077 92.7715 620.077Z" fill="#7BC678"/>
<path d="M92.7715 567.915C95.0748 567.915 96.942 566.047 96.942 563.744C96.942 561.441 95.0748 559.574 92.7715 559.574C90.4683 559.574 88.6011 561.441 88.6011 563.744C88.6011 566.047 90.4683 567.915 92.7715 567.915Z" fill="#7BC678"/>
<path d="M92.7715 489.603C95.0748 489.603 96.942 487.736 96.942 485.433C96.942 483.129 95.0748 481.262 92.7715 481.262C90.4683 481.262 88.6011 483.129 88.6011 485.433C88.6011 487.736 90.4683 489.603 92.7715 489.603Z" fill="#7BC678"/>
<path d="M92.7715 463.521C95.0748 463.521 96.942 461.654 96.942 459.351C96.942 457.048 95.0748 455.181 92.7715 455.181C90.4683 455.181 88.6011 457.048 88.6011 459.351C88.6011 461.654 90.4683 463.521 92.7715 463.521Z" fill="#7BC678"/>
<path d="M121.435 620.077C123.738 620.077 125.605 618.21 125.605 615.907C125.605 613.604 123.738 611.736 121.435 611.736C119.131 611.736 117.264 613.604 117.264 615.907C117.264 618.21 119.131 620.077 121.435 620.077Z" fill="#7BC678"/>
<path d="M121.435 593.995C123.738 593.995 125.605 592.128 125.605 589.825C125.605 587.521 123.738 585.654 121.435 585.654C119.131 585.654 117.264 587.521 117.264 589.825C117.264 592.128 119.131 593.995 121.435 593.995Z" fill="#7BC678"/>
<path d="M121.435 541.833C123.738 541.833 125.605 539.965 125.605 537.662C125.605 535.359 123.738 533.492 121.435 533.492C119.131 533.492 117.264 535.359 117.264 537.662C117.264 539.965 119.131 541.833 121.435 541.833Z" fill="#7BC678"/>
<path d="M121.435 515.685C123.738 515.685 125.605 513.818 125.605 511.515C125.605 509.211 123.738 507.344 121.435 507.344C119.131 507.344 117.264 509.211 117.264 511.515C117.264 513.818 119.131 515.685 121.435 515.685Z" fill="#7BC678"/>
<path d="M121.435 463.521C123.738 463.521 125.605 461.654 125.605 459.351C125.605 457.048 123.738 455.181 121.435 455.181C119.131 455.181 117.264 457.048 117.264 459.351C117.264 461.654 119.131 463.521 121.435 463.521Z" fill="#7BC678"/>
<path d="M150.164 646.226C152.468 646.226 154.335 644.358 154.335 642.055C154.335 639.752 152.468 637.885 150.164 637.885C147.861 637.885 145.994 639.752 145.994 642.055C145.994 644.358 147.861 646.226 150.164 646.226Z" fill="#7BC678"/>
<path d="M150.164 620.077C152.468 620.077 154.335 618.21 154.335 615.907C154.335 613.604 152.468 611.736 150.164 611.736C147.861 611.736 145.994 613.604 145.994 615.907C145.994 618.21 147.861 620.077 150.164 620.077Z" fill="#7BC678"/>
<path d="M150.164 593.995C152.468 593.995 154.335 592.128 154.335 589.825C154.335 587.521 152.468 585.654 150.164 585.654C147.861 585.654 145.994 587.521 145.994 589.825C145.994 592.128 147.861 593.995 150.164 593.995Z" fill="#7BC678"/>
<path d="M150.164 567.915C152.468 567.915 154.335 566.047 154.335 563.744C154.335 561.441 152.468 559.574 150.164 559.574C147.861 559.574 145.994 561.441 145.994 563.744C145.994 566.047 147.861 567.915 150.164 567.915Z" fill="#7BC678"/>
<path d="M150.164 515.685C152.468 515.685 154.335 513.818 154.335 511.515C154.335 509.211 152.468 507.344 150.164 507.344C147.861 507.344 145.994 509.211 145.994 511.515C145.994 513.818 147.861 515.685 150.164 515.685Z" fill="#7BC678"/>
<path d="M150.164 489.603C152.468 489.603 154.335 487.736 154.335 485.433C154.335 483.129 152.468 481.262 150.164 481.262C147.861 481.262 145.994 483.129 145.994 485.433C145.994 487.736 147.861 489.603 150.164 489.603Z" fill="#7BC678"/>
<path d="M150.164 437.439C152.468 437.439 154.335 435.572 154.335 433.269C154.335 430.966 152.468 429.099 150.164 429.099C147.861 429.099 145.994 430.966 145.994 433.269C145.994 435.572 147.861 437.439 150.164 437.439Z" fill="#7BC678"/>
<path d="M178.893 620.077C181.196 620.077 183.064 618.21 183.064 615.907C183.064 613.604 181.196 611.736 178.893 611.736C176.59 611.736 174.723 613.604 174.723 615.907C174.723 618.21 176.59 620.077 178.893 620.077Z" fill="#7BC678"/>
<path d="M178.893 567.915C181.196 567.915 183.064 566.047 183.064 563.744C183.064 561.441 181.196 559.574 178.893 559.574C176.59 559.574 174.723 561.441 174.723 563.744C174.723 566.047 176.59 567.915 178.893 567.915Z" fill="#7BC678"/>
<path d="M178.893 515.685C181.196 515.685 183.064 513.818 183.064 511.515C183.064 509.211 181.196 507.344 178.893 507.344C176.59 507.344 174.723 509.211 174.723 511.515C174.723 513.818 176.59 515.685 178.893 515.685Z" fill="#7BC678"/>
</svg>
