<svg width="121" height="66" viewBox="0 0 121 66" fill="none" xmlns="http://www.w3.org/2000/svg">
<circle cx="24.0625" cy="28.1875" r="24.0625" fill="#FF8345"/>
<path d="M19.249 34.375L47.4365 62.5625" stroke="#FF8345" stroke-width="6.875" stroke-linecap="round"/>
<path d="M23.0299 45.4431C21.5663 45.4431 20.2906 45.2686 19.203 44.9194C18.1154 44.5703 17.2426 44.0735 16.5846 43.429C15.9266 42.771 15.4097 41.9788 15.0337 41.0522C14.6577 40.1257 14.4429 39.0918 14.3892 37.9504C14.3757 37.6013 14.369 37.2388 14.369 36.8628C14.369 36.0303 14.4093 35.1508 14.4899 34.2242L15.7185 22.4615C15.9065 20.6488 16.2288 19.0778 16.6853 17.7484C17.1418 16.4056 17.7864 15.2307 18.6189 14.2236C19.4648 13.2166 20.5525 12.4579 21.8818 11.9476C23.2246 11.4374 24.8091 11.1823 26.6353 11.1823C28.3674 11.1823 29.8176 11.4105 30.9858 11.8671C32.1675 12.3102 33.0671 12.9681 33.6848 13.8409C34.3025 14.7137 34.7053 15.7141 34.8933 16.842C35.0007 17.4597 35.0477 18.1445 35.0343 18.8965C35.0343 19.5007 35.0007 20.1453 34.9336 20.8301L34.6113 23.7305H28.1459L28.4681 20.6488C28.5084 20.2325 28.5353 19.964 28.5487 19.8431C28.5621 19.7089 28.5756 19.4604 28.589 19.0979C28.6158 18.7354 28.6226 18.4869 28.6091 18.3527C28.5957 18.2184 28.5688 18.0103 28.5286 17.7283C28.5017 17.4329 28.448 17.2314 28.3674 17.124C28.2869 17.0032 28.1862 16.8555 28.0653 16.6809C27.9445 16.4929 27.7968 16.3654 27.6222 16.2982C27.4476 16.2177 27.2328 16.1505 26.9777 16.0968C26.736 16.0297 26.4607 15.9961 26.1519 15.9961C25.6953 15.9961 25.2925 16.0565 24.9434 16.1774C24.5942 16.2848 24.2988 16.4594 24.0571 16.701C23.8154 16.9427 23.614 17.1979 23.4529 17.4664C23.2917 17.7216 23.1575 18.064 23.05 18.4937C22.9426 18.9233 22.8553 19.3127 22.7882 19.6619C22.7345 20.011 22.6808 20.4474 22.6271 20.9711L21.0963 35.7349C21.0292 36.3257 20.9956 36.8628 20.9956 37.3462C20.9956 38.2324 21.1097 38.9307 21.338 39.4409C21.6871 40.2197 22.4324 40.6091 23.5737 40.6091C24.0168 40.6091 24.4062 40.5554 24.7419 40.448C25.0776 40.3406 25.3596 40.1593 25.5879 39.9042C25.8162 39.649 25.9974 39.4006 26.1317 39.1589C26.2794 38.9172 26.4003 38.5748 26.4943 38.1317C26.6017 37.6886 26.6755 37.3193 26.7158 37.0239C26.7695 36.7151 26.8232 36.2854 26.877 35.7349L27.2194 32.5323H33.6848L33.4028 35.332C33.2417 36.8762 32.9463 38.2324 32.5166 39.4006C32.1003 40.5688 31.4961 41.6229 30.7039 42.5629C29.925 43.5028 28.8911 44.2212 27.6021 44.718C26.313 45.2014 24.7889 45.4431 23.0299 45.4431ZM36.2025 45L39.7072 11.6052H45.8302L44.6016 23.3679C46.5889 21.6357 48.6433 20.7697 50.7649 20.7697C52.1345 20.7697 53.108 21.2732 53.6854 22.2803C54.142 23.0725 54.3702 24.0192 54.3702 25.1202C54.3702 25.4291 54.3501 25.7513 54.3098 26.087L52.3359 45H46.2129L48.0659 27.2351C48.0928 27.0203 48.1062 26.8188 48.1062 26.6309C48.1062 26.228 48.0458 25.9192 47.9249 25.7043C47.7504 25.3821 47.3811 25.2277 46.8171 25.2411C46.1726 25.2411 45.3334 25.5835 44.2994 26.2683L42.3256 45H36.2025ZM61.1378 45.4028C60.077 45.3894 59.1572 45.094 58.3784 44.5166C57.6265 43.9392 57.0894 43.2208 56.7671 42.3615C56.5254 41.7035 56.3978 41.012 56.3844 40.2869C56.3844 40.072 56.3978 39.8572 56.4247 39.6423C56.4918 39.0247 56.6127 38.4406 56.7872 37.89C56.9618 37.326 57.1565 36.8225 57.3713 36.3794C57.5996 35.9363 57.895 35.5066 58.2576 35.0903C58.6201 34.6741 58.9558 34.3182 59.2646 34.0228C59.5735 33.7274 59.9763 33.4253 60.4731 33.1165C60.9834 32.7942 61.4064 32.5391 61.7421 32.3511C62.0778 32.1631 62.5343 31.9415 63.1117 31.6864C63.6891 31.4313 64.1322 31.2433 64.441 31.1224C64.7633 31.0016 65.2266 30.8337 65.8308 30.6189C66.4351 30.3906 66.858 30.2295 67.0997 30.1355L67.3213 27.9803C67.3616 27.6447 67.3817 27.3425 67.3817 27.074C67.3683 26.6174 67.3079 26.2549 67.2004 25.9863C67.0125 25.5566 66.5962 25.3351 65.9517 25.3217C64.8506 25.3217 64.1993 26.087 63.9979 27.6178L63.7159 29.2291L57.9353 29.0076C57.9487 28.9404 57.9689 28.7927 57.9957 28.5645C58.036 28.3228 58.0562 28.1952 58.0562 28.1818C58.4993 25.6305 59.4594 23.7573 60.9364 22.5623C62.4269 21.3672 64.4343 20.7697 66.9587 20.7697C69.322 20.7697 71.0273 21.4142 72.0747 22.7032C72.9207 23.7506 73.3369 25.1135 73.3235 26.792C73.3235 27.1814 73.3033 27.5909 73.2631 28.0206L72.0948 39.0179C71.9606 40.3741 71.8934 41.8109 71.8934 43.3282C71.8934 43.8788 71.9001 44.436 71.9136 45H66.4149C66.2672 43.2678 66.1934 42.1198 66.1934 41.5558C65.7637 42.6434 65.1124 43.5565 64.2396 44.295C63.3802 45.0336 62.3463 45.4028 61.1378 45.4028ZM63.8972 40.9113C64.2732 40.9113 64.6626 40.777 65.0654 40.5084C65.4817 40.2264 65.8308 39.9176 66.1128 39.5819L66.7976 33.056C65.616 33.6469 64.5955 34.4055 63.7361 35.332C62.8901 36.2585 62.4067 37.2253 62.2859 38.2324C62.2725 38.407 62.2657 38.5748 62.2657 38.736C62.2792 39.3134 62.3933 39.7968 62.6082 40.1862C62.9036 40.6696 63.3333 40.9113 63.8972 40.9113ZM75.6196 44.9597L79.1444 11.5649H85.2272L83.2332 30.4175L90.0813 21.1523H96.8287L89.7792 30.8002L94.2506 45H87.7046L84.7236 33.4589L82.6692 35.8759L81.7024 44.9597H75.6196ZM96.6072 45L99.1047 21.1523H105.228L104.845 24.939C106.604 22.2131 108.383 20.8502 110.183 20.8502C110.424 20.8502 110.72 20.8905 111.069 20.9711L110.444 26.7114C109.974 26.5503 109.498 26.4697 109.014 26.4697H108.914C108.041 26.4966 107.249 26.7181 106.537 27.1344C105.825 27.5507 105.114 28.2086 104.402 29.1083L102.73 45H96.6072ZM111.431 45L113.929 21.1523H120.052L117.554 45H111.431ZM114.332 17.265L114.835 12.5317H120.979L120.475 17.265H114.332Z" fill="#183B56"/>
</svg>
