<svg width="41" height="41" viewBox="0 0 41 41" fill="none" xmlns="http://www.w3.org/2000/svg">
<g clip-path="url(#clip0)">
<path d="M32.6763 26.74C32.6763 18.2155 16.9608 18.7722 16.9608 13.6255C16.9608 11.1344 19.3441 9.91773 22.1086 9.91773C26.7574 9.91773 27.5852 12.9044 29.6908 12.9044C31.1819 12.9044 31.8997 11.9655 31.8997 10.9133C31.8997 8.46773 28.1919 6.61662 24.6363 5.97551V3.61551C24.6363 2.90856 24.3555 2.23056 23.8556 1.73067C23.3557 1.23079 22.6777 0.949951 21.9708 0.949951C21.2638 0.949951 20.5858 1.23079 20.0859 1.73067C19.5861 2.23056 19.3052 2.90856 19.3052 3.61551V6.05884C15.4286 6.94106 12.0941 9.62995 12.0941 14.0133C12.0941 22.2011 27.8074 21.87 27.8074 27.6211C27.8074 29.6133 25.6508 31.6055 22.1086 31.6055C16.7963 31.6055 15.0263 28.0099 12.8686 28.0099C11.8174 28.0099 10.8774 28.8944 10.8774 30.2277C10.8774 32.3455 14.4274 34.8944 19.3086 35.6066L19.3052 35.6233V38.2866C19.3253 38.9805 19.615 39.6393 20.1129 40.1231C20.6108 40.6068 21.2777 40.8774 21.9719 40.8774C22.6661 40.8774 23.333 40.6068 23.8309 40.1231C24.3288 39.6393 24.6185 38.9805 24.6386 38.2866V35.6233C24.6386 35.5922 24.623 35.5677 24.6208 35.54C29.013 34.72 32.6763 31.8566 32.6763 26.74Z" fill="white"/>
</g>
<defs>
<clipPath id="clip0">
<rect width="40" height="40" fill="white" transform="translate(0.665039 0.952148)"/>
</clipPath>
</defs>
</svg>
