<svg width="33" height="33" viewBox="0 0 33 33" fill="none" xmlns="http://www.w3.org/2000/svg">
<path d="M14.9395 12.0459C14.627 12.3584 14.6582 12.8271 14.9395 13.1396L18.7207 16.7021H9.75195C9.31445 16.7021 9.00195 17.0459 9.00195 17.4521V18.4521C9.00195 18.8896 9.31445 19.2021 9.75195 19.2021H18.7207L14.9395 22.7959C14.6582 23.1084 14.6582 23.5771 14.9395 23.8896L15.627 24.5771C15.9395 24.8584 16.4082 24.8584 16.6895 24.5771L22.7832 18.4834C23.0645 18.2021 23.0645 17.7334 22.7832 17.4209L16.6895 11.3584C16.4082 11.0771 15.9395 11.0771 15.627 11.3584L14.9395 12.0459Z" fill="#183B56"/>
</svg>
