<svg width="41" height="41" viewBox="0 0 41 41" fill="none" xmlns="http://www.w3.org/2000/svg">
<path fill-rule="evenodd" clip-rule="evenodd" d="M23.8717 35.7788L30.7318 22.055C30.2292 21.9928 29.7427 21.7687 29.3568 21.3827L21.5032 13.5271C21.1173 13.1412 20.8933 12.6546 20.8311 12.1519L7.11092 19.0137C6.86765 19.1353 6.70464 19.3743 6.68001 19.6452L5.13184 36.6795L13.7057 28.3052C12.5907 26.7694 12.7253 24.6081 14.1097 23.2234C15.6432 21.6895 18.1295 21.6895 19.663 23.2234C21.1965 24.7573 21.1965 27.2442 19.663 28.7781C18.3615 30.0799 16.3738 30.2769 14.8646 29.369L6.28199 37.7519L23.2404 36.2098C23.5112 36.1852 23.7501 36.0221 23.8717 35.7788ZM18.5524 24.3335C17.6323 23.4132 16.1405 23.4132 15.2204 24.3335C14.3003 25.2538 14.3003 26.746 15.2204 27.6663C16.1405 28.5867 17.6323 28.5867 18.5524 27.6663C19.4725 26.746 19.4725 25.2538 18.5524 24.3335Z" fill="#FF8345"/>
<path d="M30.9658 19.9179L22.9658 11.9179C22.6533 11.6055 22.6533 11.0989 22.9658 10.7865L27.7658 5.98651C28.0782 5.67409 28.5847 5.67409 28.8971 5.98651L36.8971 13.9865C37.2096 14.2989 37.2096 14.8055 36.8971 15.1179L32.0971 19.9179C31.7847 20.2303 31.2782 20.2303 30.9658 19.9179Z" fill="#FF8345"/>
</svg>
