<svg width="40" height="41" viewBox="0 0 40 41" fill="none" xmlns="http://www.w3.org/2000/svg">
<path d="M34.455 16.3371C34.455 15.6898 34.9798 15.165 35.6271 15.165C36.2745 15.165 36.7992 15.6898 36.7992 16.3371V31.8921C36.7992 35.1288 34.1754 37.7526 30.9388 37.7526H9.05968C5.82304 37.7526 3.19922 35.1288 3.19922 31.8921V10.0131C3.19922 6.77641 5.82304 4.15259 9.05968 4.15259H23.1353C23.7826 4.15259 24.3074 4.67735 24.3074 5.32468C24.3074 5.97201 23.7826 6.49677 23.1353 6.49677H9.05968C7.1177 6.49677 5.5434 8.07107 5.5434 10.0131V31.8921C5.5434 33.8341 7.1177 35.4084 9.05968 35.4084H30.9388C32.8807 35.4084 34.455 33.8341 34.455 31.8921V16.3371Z" fill="#FF8345"/>
<path fill-rule="evenodd" clip-rule="evenodd" d="M16.8143 18.2823L22.688 24.1208L36.2396 10.5692C36.9869 9.82186 36.9869 8.61021 36.2396 7.8629L33.0898 4.71308C32.3425 3.96576 31.1308 3.96576 30.3835 4.71308L16.8143 18.2823ZM21.1596 25.4514C21.3083 25.4236 21.4458 25.3542 21.5564 25.2516L15.6845 19.4149C15.591 19.5221 15.5277 19.6527 15.5014 19.7932L14.4139 25.6054C14.3105 26.1581 14.7946 26.6423 15.3474 26.5388L21.1596 25.4514Z" fill="#FF8345"/>
</svg>
