<svg width="41" height="41" viewBox="0 0 41 41" fill="none" xmlns="http://www.w3.org/2000/svg">
<path d="M12.3317 4.2854C10.4984 4.2854 8.99837 5.7854 8.99837 7.61873C8.99837 9.45207 10.4984 10.9521 12.3317 10.9521C14.165 10.9521 15.665 9.46873 15.665 7.61873C15.665 5.76873 14.1817 4.2854 12.3317 4.2854ZM8.99837 12.6187C7.14837 12.6187 5.66504 14.1021 5.66504 15.9521V25.9521H8.99837V37.6187H17.3317V20.2854L21.5484 27.6187H25.615L27.3317 25.3854V37.6187H33.9984V29.2854H35.665V24.2854C35.665 22.4354 34.1817 20.9521 32.3317 20.9521H28.165C27.165 20.9521 26.2817 21.3854 25.665 22.0854C25.115 22.7854 24.5317 23.5521 23.9984 24.2854H23.4817L17.3317 13.7187C17.065 13.2521 16.0317 12.6187 14.8317 12.6187H8.99837ZM30.665 14.2854C29.2817 14.2854 28.165 15.4021 28.165 16.7854C28.165 18.1687 29.2817 19.2854 30.665 19.2854C32.0484 19.2854 33.165 18.1687 33.165 16.7854C33.165 15.4021 32.0484 14.2854 30.665 14.2854Z" fill="#FF8345"/>
</svg>
