<svg width="40" height="41" viewBox="0 0 40 41" fill="none" xmlns="http://www.w3.org/2000/svg">
<path fill-rule="evenodd" clip-rule="evenodd" d="M17.2532 9.58818L14.3995 9.89598V24.0212L17.333 24.3415L28.87 28.0392C29.1058 28.1144 29.3519 28.1527 29.5995 28.1527C30.925 28.1527 31.9995 27.0782 31.9995 25.7527V8.15309C31.9995 7.90457 31.9609 7.65756 31.8851 7.42088C31.4807 6.15859 30.1296 5.46312 28.8673 5.86751L27.1995 6.4018V14.5524C27.1995 14.9943 26.8413 15.3524 26.3995 15.3524C25.9577 15.3524 25.5995 14.9943 25.5995 14.5524V6.91437L17.2532 9.58818ZM12.7997 23.8467V10.0688L8.19918 10.5651C5.35532 10.8718 3.19971 13.2724 3.19971 16.1328V17.7767C3.19971 20.6342 5.35117 23.0334 8.19181 23.3436L12.7997 23.8467Z" fill="#FF8345"/>
<path fill-rule="evenodd" clip-rule="evenodd" d="M35.9999 16.9518C35.9999 15.3036 35.0453 13.8711 33.5999 13.01V20.8937C35.0453 20.0326 35.9999 18.6 35.9999 16.9518ZM8.01864 24.933C7.74718 24.9033 7.48062 24.8588 7.21973 24.8004L10.4325 33.0272C10.7921 33.948 11.6795 34.5541 12.6681 34.5541H13.5634C13.706 34.5541 13.8483 34.5414 13.9887 34.5162C15.2932 34.2813 16.1603 33.0333 15.9254 31.7288L14.8357 25.6774L8.01864 24.933Z" fill="#FF8345"/>
</svg>
