<svg width="41" height="41" viewBox="0 0 41 41" fill="none" xmlns="http://www.w3.org/2000/svg">
<path fill-rule="evenodd" clip-rule="evenodd" d="M37.1312 26.0266C36.4821 25.2244 35.6641 24.5645 34.7312 24.1009V20.9525C34.7312 12.7787 28.5051 6.60093 20.3312 6.60093C12.1574 6.60093 5.93125 12.7787 5.93125 20.9525V24.1009C4.99842 24.5645 4.1804 25.2244 3.53125 26.0266V20.9525C3.53125 11.4532 10.832 4.20093 20.3312 4.20093C29.8305 4.20093 37.1312 11.4532 37.1312 20.9525V26.0266ZM8.40219 24.9995C8.35575 25.2434 8.33144 25.4951 8.33144 25.7525V35.3525C8.33144 35.6099 8.35575 35.8616 8.40219 36.1054C5.65395 35.748 3.53144 33.3981 3.53144 30.5525C3.53144 27.7068 5.65395 25.3569 8.40219 24.9995ZM32.3317 35.3525C32.3317 35.6099 32.3074 35.8616 32.261 36.1054C35.0092 35.748 37.1317 33.3981 37.1317 30.5525C37.1317 27.7068 35.0092 25.3569 32.261 24.9995C32.3074 25.2434 32.3317 25.4951 32.3317 25.7525V35.3525Z" fill="#FF8345"/>
<path fill-rule="evenodd" clip-rule="evenodd" d="M13.9321 23.3518H12.3321C11.0066 23.3518 9.93213 24.4263 9.93213 25.7518V35.3518C9.93213 36.6773 11.0066 37.7518 12.3321 37.7518H13.9321C15.2576 37.7518 16.3321 36.6773 16.3321 35.3518V25.7518C16.3321 24.4263 15.2576 23.3518 13.9321 23.3518ZM28.3318 23.3519H26.7318C25.4063 23.3519 24.3318 24.4265 24.3318 25.7519V35.3519C24.3318 36.6774 25.4063 37.7519 26.7318 37.7519H28.3318C29.6573 37.7519 30.7318 36.6774 30.7318 35.3519V25.7519C30.7318 24.4265 29.6573 23.3519 28.3318 23.3519Z" fill="#FF8345"/>
</svg>
