<svg width="41" height="41" viewBox="0 0 41 41" fill="none" xmlns="http://www.w3.org/2000/svg">
<path fill-rule="evenodd" clip-rule="evenodd" d="M12.5029 10.5522L13.8937 7.77146C14.0205 7.53704 14.2264 7.20378 14.4883 6.8639C14.8259 6.42574 15.1674 6.09663 15.5513 5.90939C15.757 5.80906 15.9725 5.7522 16.1973 5.7522H25.7973C26.022 5.7522 26.2375 5.80906 26.4432 5.90939C26.8271 6.09663 27.1686 6.42574 27.5063 6.8639C27.7682 7.20378 27.974 7.53704 28.1128 7.79443L29.4917 10.5522H32.1973C35.2901 10.5522 37.7973 13.0594 37.7973 16.1522V30.5522C37.7973 33.645 35.2901 36.1522 32.1973 36.1522H9.79727C6.70447 36.1522 4.19727 33.645 4.19727 30.5522V16.1522C4.19727 13.0594 6.70447 10.5522 9.79727 10.5522H12.5029ZM10.5974 18.5525C11.4811 18.5525 12.1974 17.8362 12.1974 16.9525C12.1974 16.0688 11.4811 15.3525 10.5974 15.3525C9.71379 15.3525 8.99744 16.0688 8.99744 16.9525C8.99744 17.8362 9.71379 18.5525 10.5974 18.5525ZM28.1975 22.5525C28.1975 26.529 24.9739 29.7525 20.9975 29.7525C17.021 29.7525 13.7975 26.529 13.7975 22.5525C13.7975 18.5761 17.021 15.3525 20.9975 15.3525C24.9739 15.3525 28.1975 18.5761 28.1975 22.5525Z" fill="#FF8345"/>
<path fill-rule="evenodd" clip-rule="evenodd" d="M20.997 28.1519C24.0898 28.1519 26.597 25.6447 26.597 22.5519C26.597 19.4591 24.0898 16.9519 20.997 16.9519C17.9042 16.9519 15.397 19.4591 15.397 22.5519C15.397 25.6447 17.9042 28.1519 20.997 28.1519Z" fill="#FF8345"/>
</svg>
