<svg width="33" height="33" viewBox="0 0 33 33" fill="none" xmlns="http://www.w3.org/2000/svg">
<path d="M15.9463 29.4083C16.3383 29.6176 16.8303 29.6163 17.2223 29.407C27.9049 23.6683 28.6636 12.4563 28.6543 9.26831C28.6533 9.01208 28.5775 8.76171 28.4364 8.54786C28.2953 8.33401 28.0948 8.16597 27.8596 8.06431L17.1263 3.30964C16.9555 3.23435 16.7708 3.19557 16.5841 3.1958C16.3975 3.19603 16.2129 3.23526 16.0423 3.31097L5.38361 8.06564C5.15187 8.16736 4.95426 8.33355 4.81431 8.54441C4.67437 8.75527 4.59799 9.00192 4.59428 9.25497C4.54894 12.427 5.18761 23.663 15.9463 29.4083ZM12.1943 14.127L15.2516 17.1843L20.9756 11.4603L22.8609 13.3456L15.2516 20.955L10.3089 16.0123L12.1943 14.127Z" fill="#7BC678"/>
</svg>
